#!OML:ASF F:\VICON\USERDATA\INSTALL\rory3\rory3.ASF
:FULLY-SPECIFIED
:DEGREES
612
root 21.0617 17.5549 11.6342 -2.38335 10.3515 6.11406
lowerback 12.7237 1.10944 -1.68435
upperback 1.95329 1.23188 -0.302729
thorax -5.10801 0.637758 0.424952
lowerneck -19.7493 5.89873 -7.63695
upperneck 37.2624 11.7305 1.45909
head 16.0796 4.05951 4.16625
rclavicle -1.65985e-014 4.77083e-015
rhumerus -42.3096 -24.7813 -70.6442
rradius 32.263
rwrist 6.31379
rhand -15.9178 10.9853
rfingers 7.12502
rthumb 10.2794 -18.7435
lclavicle -1.65985e-014 4.77083e-015
lhumerus -29.3065 12.5372 74.7425
lradius 40.8585
lwrist 2.90305
lhand -22.1852 29.4443
lfingers 7.12502
lthumb 4.22994 59.3821
rfemur -11.3419 -0.491611 20.0086
rtibia 41.1514
rfoot -21.9084 -1.01442
rtoes 16.0663
lfemur -8.25129 -2.054 -24.119
ltibia 28.1317
lfoot -16.1132 -14.3664
ltoes -9.7151
613
root 21.1081 17.5401 11.6246 -2.52958 10.032 5.90347
lowerback 12.9203 1.14125 -1.19877
upperback 1.91823 1.33726 -0.28815
thorax -5.24512 0.68129 0.144202
lowerneck -19.6184 6.00195 -7.5043
upperneck 37.12 11.9326 1.14776
head 16.0084 4.12792 4.03308
rclavicle 6.06293e-015 -7.15625e-015
rhumerus -42.1867 -23.9514 -70.9855
rradius 32.4727
rwrist 6.07736
rhand -15.8681 10.6844
rfingers 7.12502
rthumb 10.3274 -19.042
lclavicle 6.06293e-015 -7.15625e-015
lhumerus -29.6589 12.6972 74.7569
lradius 40.7503
lwrist 2.70603
lhand -21.6124 29.8339
lfingers 7.12502
lthumb 4.78306 59.7599
rfemur -11.1947 -0.498881 19.9063
rtibia 40.983
rfoot -22.1787 -0.721845
rtoes 13.3706
lfemur -8.397 -1.42573 -23.9311
ltibia 28.6771
lfoot -16.6634 -14.8136
ltoes -10.7099
614
root 21.1536 17.5282 11.616 -2.58816 9.74589 5.90062
lowerback 12.9724 1.16367 -1.00865
upperback 1.97032 1.39318 -0.283769
thorax -5.21533 0.705058 0.0315725
lowerneck -19.7501 6.07065 -7.47243
upperneck 37.0662 12.1366 0.894093
head 16.0325 4.17699 3.96206
rclavicle -2.13694e-014 3.18055e-015
rhumerus -41.7915 -23.3193 -71.2803
rradius 32.5458
rwrist 6.0318
rhand -15.8358 10.5583
rfingers 7.12502
rthumb 10.3586 -19.1666
lclavicle -2.13694e-014 3.18055e-015
lhumerus -29.808 13.1093 74.836
lradius 40.4409
lwrist 2.45467
lhand -21.637 29.1402
lfingers 7.12502
lthumb 4.75927 59.0667
rfemur -11.1182 -0.800524 19.5436
rtibia 40.8991
rfoot -22.3371 0.0261661
rtoes 11.9355
lfemur -8.5869 -1.12276 -24.0063
ltibia 29.2469
lfoot -17.2336 -14.8865
ltoes -11.7561
615
root 21.1991 17.5271 11.6052 -2.75723 9.45679 5.71166
lowerback 13.1186 1.18523 -0.616895
upperback 2.05443 1.47997 -0.200758
thorax -5.20054 0.741063 -0.119299
lowerneck -19.8381 6.05642 -7.57837
upperneck 36.9709 12.2268 0.714031
head 16.0149 4.17567 3.91913
rclavicle -8.94531e-015 1.90833e-014
rhumerus -41.444 -22.6734 -71.4566
rradius 32.669
rwrist 5.87376
rhand -15.7267 10.6944
rfingers 7.12502
rthumb 10.4638 -19.0251
lclavicle -8.94531e-015 1.90833e-014
lhumerus -29.9049 13.4595 74.9863
lradius 39.9918
lwrist 2.16878
lhand -22.2695 27.7173
lfingers 7.12502
lthumb 4.14856 57.6567
rfemur -10.9709 -1.33553 19.3618
rtibia 40.8558
rfoot -22.4433 1.32998
rtoes 12.7557
lfemur -8.7259 -0.660544 -23.8593
ltibia 29.827
lfoot -17.5556 -15.2297
ltoes -11.876
616
root 21.2431 17.5273 11.588 -2.94318 9.05977 5.25396
lowerback 13.3284 1.22759 -0.00921153
upperback 2.10685 1.63074 -0.0266568
thorax -5.2498 0.805278 -0.309791
lowerneck -20.0046 6.07323 -7.644
upperneck 37.1037 12.3254 0.687742
head 16.1154 4.18857 3.9535
rclavicle 2.06736e-014 -3.18055e-015
rhumerus -41.1295 -22.0125 -71.5581
rradius 32.7748
rwrist 5.80946
rhand -15.7176 10.6423
rfingers 7.12502
rthumb 10.4726 -19.0768
lclavicle 2.06736e-014 -3.18055e-015
lhumerus -30.042 13.7368 75.1781
lradius 39.6582
lwrist 2.03353
lhand -22.7572 27.3006
lfingers 7.12502
lthumb 3.67754 57.2487
rfemur -10.9542 -1.77991 19.567
rtibia 40.806
rfoot -22.3271 2.14338
rtoes 13.0098
lfemur -8.9532 -0.101057 -23.3805
ltibia 30.388
lfoot -17.7356 -15.7085
ltoes -12.2628
617
root 21.2879 17.5227 11.5716 -3.03206 8.69725 4.8869
lowerback 13.4512 1.2523 0.459317
upperback 2.13332 1.73937 0.129179
thorax -5.28021 0.851104 -0.432242
lowerneck -19.9462 6.12906 -7.50193
upperneck 36.9362 12.4745 0.32337
head 16.0624 4.22682 3.79245
rclavicle 5.46658e-015 -6.36111e-015
rhumerus -40.7496 -21.2859 -71.6949
rradius 32.8981
rwrist 5.82302
rhand -15.7573 10.5
rfingers 7.12502
rthumb 10.4343 -19.2211
lclavicle 5.46658e-015 -6.36111e-015
lhumerus -30.2778 13.9985 75.3773
lradius 39.4062
lwrist 2.06258
lhand -22.9848 27.4024
lfingers 7.12502
lthumb 3.45782 57.3541
rfemur -10.996 -2.30067 19.7107
rtibia 40.6722
rfoot -22.1885 2.77261
rtoes 13.217
lfemur -9.2803 0.354054 -23.0043
ltibia 30.9965
lfoot -17.8636 -16.211
ltoes -12.7309
618
root 21.3266 17.5268 11.5643 -3.17295 8.41442 4.63048
lowerback 13.5151 1.27418 0.698698
upperback 2.2294 1.81131 0.281138
thorax -5.21106 0.883936 -0.420594
lowerneck -20.0125 6.14677 -7.48853
upperneck 36.8424 12.5755 0.113602
head 16.0521 4.24197 3.71957
rclavicle 2.10712e-014 -1.74931e-014
rhumerus -40.3418 -20.4809 -71.8959
rradius 33.078
rwrist 5.80459
rhand -16.0384 10.5246
rfingers 7.12502
rthumb 10.1631 -19.21
lclavicle 2.10712e-014 -1.74931e-014
lhumerus -30.5446 14.2394 75.5783
lradius 39.1888
lwrist 1.93538
lhand -23.2502 27.3029
lfingers 7.12502
lthumb 3.20149 57.2586
rfemur -10.8499 -2.7086 19.7869
rtibia 40.4915
rfoot -22.1375 3.17955
rtoes 13.2544
lfemur -9.48651 0.669067 -22.7149
ltibia 31.5823
lfoot -17.9103 -16.8524
ltoes -13.1245
619
root 21.3627 17.5387 11.5586 -3.42681 8.06174 4.18911
lowerback 13.6882 1.29566 1.05329
upperback 2.30987 1.90576 0.518066
thorax -5.2171 0.925965 -0.391825
lowerneck -19.9729 6.21087 -7.55745
upperneck 36.7998 12.7002 0.0795584
head 16.0138 4.2841 3.73272
rclavicle 1.09332e-014 -1.59028e-015
rhumerus -39.9744 -19.8441 -71.8666
rradius 33.0614
rwrist 6.06152
rhand -16.2381 10.8619
rfingers 7.12502
rthumb 9.97045 -18.8819
lclavicle 1.09332e-014 -1.59028e-015
lhumerus -30.8069 14.5475 75.8204
lradius 38.8929
lwrist 1.75942
lhand -23.5918 27.4126
lfingers 7.12502
lthumb 2.87157 57.3731
rfemur -10.5703 -2.74952 20.1306
rtibia 40.2618
rfoot -22.0307 3.32747
rtoes 13.262
lfemur -9.59205 0.904303 -22.1642
ltibia 32.1334
lfoot -17.9292 -17.6505
ltoes -13.8531
620
root 21.3969 17.5473 11.5504 -3.55682 7.71021 3.98183
lowerback 13.8675 1.37289 1.17598
upperback 2.29338 2.0354 0.635961
thorax -5.33161 0.98709 -0.365496
lowerneck -19.6684 6.33523 -7.27583
upperneck 36.6586 12.8227 -0.160627
head 15.9133 4.35733 3.58477
rclavicle -3.99557e-014 -2.38542e-015
rhumerus -39.7357 -19.275 -71.8403
rradius 33.1001
rwrist 5.99772
rhand -16.2512 11.1096
rfingers 7.12502
rthumb 9.9578 -18.6349
lclavicle -3.99557e-014 -2.38542e-015
lhumerus -31.0037 14.6477 75.9902
lradius 38.4035
lwrist 1.51043
lhand -23.861 26.4114
lfingers 7.12502
lthumb 2.61155 56.3752
rfemur -10.4326 -2.6551 20.2596
rtibia 40.0536
rfoot -21.8176 3.42244
rtoes 12.9172
lfemur -9.774 1.15789 -21.837
ltibia 32.6377
lfoot -17.9556 -18.6254
ltoes -14.8124
621
root 21.4243 17.5521 11.5455 -3.56083 7.36166 3.80915
lowerback 13.9161 1.47638 1.1467
upperback 2.26117 2.1775 0.781545
thorax -5.39757 1.05761 -0.223718
lowerneck -19.6011 6.39065 -7.06221
upperneck 36.6524 12.9226 -0.418067
head 15.937 4.3904 3.45874
rclavicle 1.85864e-014 1.27222e-014
rhumerus -39.4648 -18.8338 -71.7364
rradius 33.2327
rwrist 5.89426
rhand -16.1728 11.0481
rfingers 7.12502
rthumb 10.0335 -18.6928
lclavicle 1.85864e-014 1.27222e-014
lhumerus -31.2349 14.6648 76.1909
lradius 37.9768
lwrist 1.30742
lhand -24.2577 25.6585
lfingers 7.12502
lthumb 2.22847 55.6266
rfemur -10.4154 -2.39406 20.4149
rtibia 39.8355
rfoot -21.6346 3.50995
rtoes 13.3088
lfemur -10.0678 1.4256 -21.4805
ltibia 33.1627
lfoot -17.8288 -19.8312
ltoes -15.3434
